<?xml version="1.0" encoding="UTF-8"?><svg id="Layer_1" xmlns="http://www.w3.org/2000/svg" viewBox="0 0 1314 426"><defs><style>.cls-1{fill:#363636;}.cls-2{fill:#6fe5fb;}.cls-3{fill:#2c5f9d;}.cls-4{fill:#50a9ec;}</style></defs><path class="cls-1" d="M1061.3,160.7v31.5c1.15.2.8-.06,1.12-.64.79-1.43.72-3.28,1.23-4.76,3.95-11.49,10.98-20.14,22.66-24.34,0,0,.01,0,.02,0,3.17-1.15,6.51-1.75,9.88-1.75h10.2s0,38.04,0,38.04l-.87-.04-18.99.51c-8.23,1.22-19.49,2.61-23.27,11.23-.23.52-.99,2.19-.99,2.51v92.25h-42v-98.75c0-.47-1.56-4.82-1.91-5.59-8.52-18.56-40.59-9.98-40.59,9.09v95.25h-41v-93.25c0-2.01-1.78-8.3-2.62-10.38-7.98-19.73-40.88-10.58-40.88,8.88v94.75h-41v-144.5h41v23.75c1.95,2.2,2.31-1.82,2.91-3.09,7.76-16.29,19.4-24.42,37.87-24.18,14.75.19,28.34,6.74,35.81,19.69,1.75,3.03,2.78,6.38,4.66,9.33,1.93-3.28,3.19-6.94,5.44-10.05,10.37-14.4,30.09-21.1,47.44-18.31,1.99.32,8.53,1.87,9.13,1.87l24.75,1Z"/><path class="cls-1" d="M310.15,278.29c-.68-.66-4.28-4.42-4.46-4.81-.25-.55-.39-.94,0-1.48l26.59-26.97c4.12,3.41,7.71,7.54,12.23,10.67,14,9.69,35.74,14.63,52.04,8.63,13.01-4.79,18.83-21.88,10.41-33.09-6.92-9.21-32.95-9.33-44.12-11.38-31.73-5.81-53.08-23.21-52.37-57.62,1.33-64.92,94.13-71.48,133.5-36.01,1.54,1.38,5.68,4.75,4.75,6.75l-27.07,26.97c-5.24-4.71-9.64-9.1-16.02-12.37-16.88-8.66-58.5-10.46-52.54,18.54,1.73,8.42,8.14,11.63,15.78,13.72,11.14,3.04,23.76,3.62,35.21,6.29,24.35,5.68,43.63,17.23,47.82,43.68,12.69,80.1-94.93,93.91-141.74,48.48Z"/><path class="cls-1" d="M803.69,159.93c-1.51.86-3.39-2.73-4.42-3.69-11.32-10.48-24.36-14.62-39.76-14.23s-27.21,5.93-25.2,23.19c2,17.14,30.93,16.89,44.06,19.44,28.77,5.59,51.76,16.56,55.32,48.68,8.58,77.25-94.56,88.79-140.45,46.45-.96-.89-5.97-5.64-6.26-6.27-.25-.55-.39-.94,0-1.48l26.59-26.97c4.26,3.35,7.75,7.55,12.23,10.67,16.74,11.65,60.47,20.4,65.84-7.07,5.22-26.74-23.54-25.01-40.99-27.77-33.55-5.29-59.1-19.6-58.84-57.56.43-61.83,83.38-71.51,124.71-43.82,2.34,1.57,13.55,10.21,13.76,12.29.24,2.33-24.34,23.9-26.59,28.16Z"/><path class="cls-1" d="M575.64,277.97v78.5h-40.25l-.75-.75v-198l.75-.75h40.25v23.25c0,.3,1.13,1.02,1.49.75,2.32-10.2,9.84-18.14,19-22.76,16.47-8.31,40.11-5.02,54.25,6.77,26.68,22.25,26.27,88.75,9.66,116.64-17.09,28.7-64.27,33.01-80.84,1.54-.94-1.79-1.13-5.54-3.56-5.19ZM621.46,263.79c5.08-5.41,7.22-13.82,7.67-21.08.65-10.47,1.03-31.25-2.9-40.59-9.42-22.34-48.63-20.36-50.58,5.1-.92,11.99-.86,31.48-.03,43.51,1.57,22.55,32.2,27.58,45.84,13.05Z"/><path class="cls-1" d="M1182.81,121.68v39h28.5l.04,37.96h-27.75l-.79.29v74.75h26v31.5c-19.96-.52-46.66,4.09-59.91-14.84-2.89-4.13-7.09-15-7.09-19.91l-.23-71.44c-.28-.24-.94-.16-1.1-.16l-19.16-.31v-37.84s12.24,0,12.24,0c.98,0,4.96-1,6.02-1.48,2-.9,3.55-2.56,4.47-4.53.29-.62,1.65-2.86,1.75-5.25v-27.75h37Z"/><rect class="cls-1" x="472.89" y="160" width="41" height="145.02"/><path class="cls-1" d="M492.49,98.11c17.43-.23,25.36,8.3,24.58,25.63-.74,16.62-12.56,21.88-27.76,20.77s-20.66-10.58-20.25-24.79c.43-14.96,9.01-21.42,23.43-21.61Z"/><path class="cls-1" d="M1018.83,157.25s18.3-.33,42.47,3.45l-27.04,16.19-12.98-11.95-2.44-7.69Z"/><path class="cls-2" d="M188.08,69.85s14.86,45.74-5.34,90.33c0,0-19.06,55.65-77.37,60.6,0,0-3.18,21.35-2.67,24.56,0,0,97.88,18.43,106.5-44.8l10.82-73.87-3.89-13.78s-19.77-34.02-28.06-43.04Z"/><path class="cls-2" d="M111.79,202.13s27.08-66.74,73.7-130.29c0,0,5.55,39.05-13.73,79.2,0,0-20.62,45.97-59.97,51.09Z"/><path class="cls-4" d="M102.7,245.34s.35,7.9,1.39,10.26c0,0,46.78,17.51,84.67-5.75,0,0,43.12-24.57,41.81-89.11-3.55-25.92-7.72-37.11-10.98-42.47-.21-.35-1.06-1.72-6.61-10.77-.57-.93-6.28-10.24-6.85-11.16,2.06,6.65,3.87,14.29,5.13,22.79,2.03,13.65,2.98,31.81-1.34,49.84,0,0-6.79,43.12-35.8,61.67,0,0-25.78,20.78-71.43,14.7Z"/><path class="cls-4" d="M110.19,275.07s40.74,14.34,79.75-2.3c0,0,34.71-10.33,49.92-61.1,0,0,8.32-22.66.86-56.51,0,0,30.41,57.66,30.41,78.03,0,0-24.47,70.71-76.5,83,0,0-24.7-1.04-83.51-37.76,0,0-.35-.19-.92-3.35Z"/><path class="cls-3" d="M110.95,278.15s19.32,40.24,63.21,46.55c0,0,43.03,10.04,76.31-27.83,0,0,23.24-20.94,20.66-63.69,0,0-14.63,50.49-72.29,61.97,0,0-46.86,10.25-87.89-17Z"/></svg>